<?xml version="1.0" standalone="yes"?>
<svg xmlns="http://www.w3.org/2000/svg" width="77" height="68" id="logo" role="img" aria-labelledby="HHFW-logo" x="0px" y="0px">
<title id="HHFW-logo-svg">HHFW Logo</title>
<path style="fill:#ffffff; stroke:none;" d="M0 0L0 68L77 68L77 0L0 0z"/>
<path style="fill:#b3d7ef; stroke:none;" d="M23 10L24 11L23 10z"/>
<path style="fill:#3f58a2; stroke:none;" d="M24 10C25.543 11.2667 26.0478 11.4892 28 12C26.457 10.7333 25.9522 10.5108 24 10z"/>
<path style="fill:#4496d2; stroke:none;" d="M27 10C28.769 10.7789 30.0359 10.9124 32 11C30.231 10.2211 28.9641 10.0876 27 10z"/>
<path style="fill:#35b5ee; stroke:none;" d="M32 10C36.2165 11.7693 41.4589 11 46 11C41.7835 9.23067 36.5411 10 32 10z"/>
<path style="fill:#4c90cc; stroke:none;" d="M46 10C48.0521 10.8742 49.7472 10.9528 52 11C49.9479 10.1258 48.2528 10.0472 46 10z"/>
<path style="fill:#5d70af; stroke:none;" d="M52 10C53.2483 10.6848 53.5484 10.7488 55 11C53.7517 10.3152 53.4516 10.2512 52 10z"/>
<path style="fill:#b5e1f6; stroke:none;" d="M55 10L56 11L55 10z"/>
<path style="fill:#9adcf7; stroke:none;" d="M22 11L22 14C22.6961 12.4463 22.6961 12.5537 22 11z"/>
<path style="fill:#00a2e9; stroke:none;" d="M23 11C22.3444 13.4853 20.9905 16.4065 21.7076 19C22.7071 22.6149 26.4497 25.4141 28.9606 27.9853C34.9951 34.1648 39.1823 41.6332 48 36C44.4488 28.3848 35.9646 25.0633 32 18L46 18C46.2915 21.9095 47.4742 24.016 50 27C57.0905 21.9876 58.0985 18.6283 55 11L46 18L46 11L32 11L32 17C28.9794 14.9061 26.3395 12.5473 23 11z"/>
<path style="fill:#1d74bf; stroke:none;" d="M26 12C27.6239 14.0436 28.6428 14.8964 31 16C30.8241 14.1219 30.5618 12.8006 30 11L26 12z"/>
<path style="fill:#1286cf; stroke:none;" d="M30 11C30.3628 13.2317 30.3628 14.7683 30 17C32.2309 15.0532 32.2309 12.9468 30 11z"/>
<path style="fill:#1285cf; stroke:none;" d="M46 11L46 18C47.7968 18 47.5215 17.9857 49 17L48 11L46 11z"/>
<path style="fill:#216eba; stroke:none;" d="M48 11L48 16C50.5236 14.5649 50.8995 13.9045 51 11L48 11z"/>
<path style="fill:#4157a1; stroke:none;" d="M51 13C52.58 12.3164 52.7772 12.1952 54 11C51.9076 11.4057 51.9802 11.2167 51 13z"/>
<path style="fill:#2bb6f1; stroke:none;" d="M55 11L55 14C55.6961 12.4463 55.6961 12.5537 55 11z"/>
<path style="fill:#83d2f4; stroke:none;" d="M56 13L57 14L56 13z"/>
<path style="fill:#6cc9f2; stroke:none;" d="M21.3333 14.6667C21.2778 14.7222 21.2222 15.7778 21.6667 15.3333C21.7222 15.2778 21.7778 14.2222 21.3333 14.6667z"/>
<path style="fill:#b6e4f9; stroke:none;" d="M57.3333 14.6667C57.2778 14.7222 57.2222 15.7778 57.6667 15.3333C57.7222 15.2778 57.7778 14.2222 57.3333 14.6667z"/>
<path style="fill:#abe0f8; stroke:none;" d="M20 16L21 17L20 16z"/>
<path style="fill:#9cdbf6; stroke:none;" d="M58 16L58 20C58.7102 18.2405 58.7102 17.7595 58 16z"/>
<path style="fill:#3fb9ee; stroke:none;" d="M20 17L20 20C20.6961 18.4463 20.6961 18.5537 20 17z"/>
<path style="fill:#34b4ed; stroke:none;" d="M32 18L32 21C33.0154 19.8607 33.3087 19.3884 34 18L32 18z"/>
<path style="fill:#5bc3f1; stroke:none;" d="M34 18C37.7393 19.5691 41.6393 18.4539 45 21C46.6999 16.4907 36.7895 18 34 18z"/>
<path style="fill:#6eccf4; stroke:none;" d="M33.3333 19.6667C33.2778 19.7222 33.2222 20.7778 33.6667 20.3333C33.7222 20.2778 33.7778 19.2222 33.3333 19.6667z"/>
<path style="fill:#d8f0fb; stroke:none;" d="M34 21C37.9143 20.0707 41.0858 20.0707 45 21C42.4621 18.0956 36.5379 18.0956 34 21z"/>
<path style="fill:#6ecaf3; stroke:none;" d="M21 20L22 21L21 20z"/>
<path style="fill:#ffffff; stroke:none;" d="M35 20C36.5047 23.012 37.7596 24.0746 41 25L44 20L35 20z"/>
<path style="fill:#9cdbf6; stroke:none;" d="M57 20L58 21L57 20z"/>
<path style="fill:#7dcff4; stroke:none;" d="M22 21L23 22L22 21z"/>
<path style="fill:#aaddf5; stroke:none;" d="M43 21L44 22L43 21z"/>
<path style="fill:#0992db; stroke:none;" d="M44 21C45.4821 24.104 46.896 25.5179 50 27C48.2423 24.4125 46.7092 22.5591 44 21z"/>
<path style="fill:#a3def7; stroke:none;" d="M56 21L57 22L56 21z"/>
<path style="fill:#81d1f4; stroke:none;" d="M23 22L24 23L23 22z"/>
<path style="fill:#a4d0ec; stroke:none;" d="M42 22L43 23L42 22z"/>
<path style="fill:#1d75bf; stroke:none;" d="M43 22L41 24C43.5726 27.4398 46.2409 30.2448 50 27L43 22z"/>
<path style="fill:#97d9f6; stroke:none;" d="M55 22L56 23L55 22z"/>
<path style="fill:#7ccff3; stroke:none;" d="M24 23L25 24L24 23z"/>
<path style="fill:#51bff0; stroke:none;" d="M36 23L37 24L36 23z"/>
<path style="fill:#a3c9e7; stroke:none;" d="M41 23L42 24L41 23z"/>
<path style="fill:#97d9f6; stroke:none;" d="M54 23L55 24L54 23z"/>
<path style="fill:#71cbf3; stroke:none;" d="M25 24L26 25L25 24z"/>
<path style="fill:#53c3f2; stroke:none;" d="M37 24L38 25L37 24z"/>
<path style="fill:#9adaf6; stroke:none;" d="M53 24L54 25L53 24z"/>
<path style="fill:#74ccf3; stroke:none;" d="M26 25L27 26L26 25z"/>
<path style="fill:#95c7e8; stroke:none;" d="M39 25L40 26L39 25z"/>
<path style="fill:#2b5eab; stroke:none;" d="M40 25C41.4798 28.166 43.1684 29.9512 46 32C46.9857 30.5215 47 30.7968 47 29C44.6774 27.5231 42.5128 26.1059 40 25z"/>
<path style="fill:#a0dcf7; stroke:none;" d="M52 25L53 26L52 25z"/>
<path style="fill:#83d2f4; stroke:none;" d="M27 26L28 27L27 26z"/>
<path style="fill:#a2ddf7; stroke:none;" d="M10 27L11 28L10 27z"/>
<path style="fill:#5ec4f1; stroke:none;" d="M11.6667 27.3333C11.2222 27.7778 12.2778 27.7222 12.3333 27.6667C12.7778 27.2222 11.7222 27.2778 11.6667 27.3333z"/>
<path style="fill:#8ed6f5; stroke:none;" d="M28 27L29 28L28 27z"/>
<path style="fill:#a4d7f2; stroke:none;" d="M50 27L51 28L50 27z"/>
<path style="fill:#35b5ee; stroke:none;" d="M66.6667 27.3333C66.2222 27.7778 67.2778 27.7222 67.3333 27.6667C67.7778 27.2222 66.7222 27.2778 66.6667 27.3333z"/>
<path style="fill:#b2e3f8; stroke:none;" d="M7 28L8 29L7 28z"/>
<path style="fill:#55c1f0; stroke:none;" d="M8.66667 28.3333C8.22223 28.7778 9.27778 28.7222 9.33333 28.6667C9.77779 28.2222 8.72223 28.2778 8.66667 28.3333z"/>
<path style="fill:#00a2e9; stroke:none;" d="M4 31L11 39L4 39L4 52L11 52L11 39C17.9322 38.2252 21.0289 31.0674 12.7137 28.6929C9.80604 27.8626 6.5393 29.8196 4 31z"/>
<path style="fill:#8fd6f5; stroke:none;" d="M29 28L30 29L29 28z"/>
<path style="fill:#a5d1ed; stroke:none;" d="M49 28L50 29L49 28z"/>
<path style="fill:#ade1f8; stroke:none;" d="M64 28L63 30C64.2627 29.0287 64.3919 29.3063 64 28z"/>
<path style="fill:#00a2e9; stroke:none;" d="M35 58C38.8331 58 43.3655 58.6271 46.9853 57.1427C54.5295 54.0492 61.1862 44.5796 67 39C67 46.5702 65.9942 51.8933 75 52L75 39L68 39C70.0791 36.0616 72.5665 33.642 75 31C72.3377 29.8219 69.0101 28.0422 66 28.7878C62.0382 29.7691 58.9952 34.0835 56.3002 36.8711C49.4845 43.9208 40.7758 50.1527 35 58z"/>
<path style="fill:#4ebef0; stroke:none;" d="M68 28C69.2484 28.6848 69.5484 28.7488 71 29C69.7516 28.3152 69.4516 28.2512 68 28z"/>
<path style="fill:#9cdcf7; stroke:none;" d="M4.66667 29.3333C4.22222 29.7778 5.27778 29.7222 5.33333 29.6667C5.77778 29.2222 4.72223 29.2778 4.66667 29.3333z"/>
<path style="fill:#4abdef; stroke:none;" d="M6.66667 29.3333C6.22222 29.7778 7.27778 29.7222 7.33333 29.6667C7.77778 29.2222 6.72223 29.2778 6.66667 29.3333z"/>
<path style="fill:#65c7f2; stroke:none;" d="M14 29L15 30L14 29z"/>
<path style="fill:#7ed0f4; stroke:none;" d="M30 29L31 30L30 29z"/>
<path style="fill:#a8cbe7; stroke:none;" d="M48 29L49 30L48 29z"/>
<path style="fill:#78cdf3; stroke:none;" d="M71 29C72.2484 29.6848 72.5484 29.7488 74 30C72.7516 29.3152 72.4516 29.2512 71 29z"/>
<path style="fill:#63c5f1; stroke:none;" d="M3.66667 30.3333C3.22223 30.7778 4.27777 30.7222 4.33333 30.6667C4.77779 30.2222 3.72222 30.2778 3.66667 30.3333z"/>
<path style="fill:#69c8f2; stroke:none;" d="M15 30L16 31L15 30z"/>
<path style="fill:#7cd1f5; stroke:none;" d="M31 30L32 31L31 30z"/>
<path style="fill:#b4cae5; stroke:none;" d="M47 30L48 31L47 30z"/>
<path style="fill:#65c0ec; stroke:none;" d="M74 30L75 31L74 30z"/>
<path style="fill:#3d57a2; stroke:none;" d="M3 31C3.68358 32.58 3.80482 32.7772 5 34C4.31642 32.42 4.19518 32.2228 3 31z"/>
<path style="fill:#5fc5f1; stroke:none;" d="M16 31L17 32L16 31z"/>
<path style="fill:#a6c6e4; stroke:none;" d="M32.3333 31.6667C32.2778 31.7222 32.2222 32.7778 32.6667 32.3333C32.7222 32.2778 32.7778 31.2222 32.3333 31.6667z"/>
<path style="fill:#ceecfa; stroke:none;" d="M46.3333 31.6667C46.2778 31.7222 46.2222 32.7778 46.6667 32.3333C46.7222 32.2778 46.7778 31.2222 46.3333 31.6667z"/>
<path style="fill:#82afd9; stroke:none;" d="M75 31L75 37C75.9511 34.7147 75.9511 33.2853 75 31z"/>
<path style="fill:#206fba; stroke:none;" d="M71 37L75 36L75 32C72.4527 33.3726 71.8125 34.2183 71 37z"/>
<path style="fill:#3f8bca; stroke:none;" d="M3 33L3 39C3.95111 36.7147 3.95111 35.2853 3 33z"/>
<path style="fill:#1f71bc; stroke:none;" d="M5 33L4 37L9 38L7 33L5 33z"/>
<path style="fill:#91b1d8; stroke:none;" d="M31 33L32 34L31 33z"/>
<path style="fill:#2a5fac; stroke:none;" d="M32 33C33.7578 36.0309 35.8175 37.5675 39 39C37.312 35.7989 35.4798 34.0323 32 33z"/>
<path style="fill:#a3ddf7; stroke:none;" d="M59 33L60 34L59 33z"/>
<path style="fill:#57bfef; stroke:none;" d="M19 34L20 35L19 34z"/>
<path style="fill:#8dbae0; stroke:none;" d="M30 34L31 35L30 34z"/>
<path style="fill:#1580cb; stroke:none;" d="M31 34C30.5962 38.2022 32.5114 39.8662 36 42C36.3649 37.6952 34.7102 35.9941 31 34z"/>
<path style="fill:#a2dcf6; stroke:none;" d="M48 34L49 35L48 34z"/>
<path style="fill:#9edbf7; stroke:none;" d="M58 34L59 35L58 34z"/>
<path style="fill:#1385ce; stroke:none;" d="M19 35L14 39C14.9357 40.9486 15.3924 41.5502 17 43C18.334 40.6041 19.7077 39.5489 22 38C20.8966 36.5434 20.4566 36.1034 19 35z"/>
<path style="fill:#6abeea; stroke:none;" d="M20 35L21 36L20 35z"/>
<path style="fill:#99cceb; stroke:none;" d="M29 35L30 36L29 35z"/>
<path style="fill:#1286cf; stroke:none;" d="M48 35L42 39C42.9357 40.9486 43.3924 41.5502 45 43C46.6058 41.0864 47.7833 40.1631 50 39C49.4892 37.0478 49.2667 36.543 48 35z"/>
<path style="fill:#a8d7f1; stroke:none;" d="M49 35L50 36L49 35z"/>
<path style="fill:#a9e0f8; stroke:none;" d="M57 35L58 36L57 35z"/>
<path style="fill:#0c8fd7; stroke:none;" d="M70 35C69.0427 36.5166 68.6128 37.3385 68 39C71.3627 39 74.2038 39.7158 75 36C72.7216 36.1232 71.7678 36.3258 70 35z"/>
<path style="fill:#6ab5e2; stroke:none;" d="M21 36L22 37L21 36z"/>
<path style="fill:#9ad2f0; stroke:none;" d="M28 36L29 37L28 36z"/>
<path style="fill:#00a2e9; stroke:none;" d="M29 36C20.3753 43.9449 12.6239 53.2271 3 60C15.2666 68.7396 26.4758 50.0257 35 43L35 41L29 36z"/>
<path style="fill:#1089d2; stroke:none;" d="M4 37L4 39C6.87502 38.9682 9.07447 39.2077 11 37L4 37z"/>
<path style="fill:#1a79c3; stroke:none;" d="M22 37C19.2415 39.1915 17.6003 40.4804 17 44C19.8747 42.4901 21.8523 40.4387 24 38L22 37z"/>
<path style="fill:#89cff1; stroke:none;" d="M27 37L28 38L27 37z"/>
<path style="fill:#1d75bf; stroke:none;" d="M50 37C48.1503 39.0126 46.3167 40.6067 45 43C47.9008 41.7068 51.3396 40.4518 50 37z"/>
<path style="fill:#b9e6f9; stroke:none;" d="M55 37L56 38L55 37z"/>
<path style="fill:#71cbf3; stroke:none;" d="M75 37L75 55C76.9516 50.349 76.9516 41.651 75 37z"/>
<path style="fill:#79d1f6; stroke:none;" d="M26 38L27 39L26 38z"/>
<path style="fill:#8bd0f1; stroke:none;" d="M39 38L40 39L39 38z"/>
<path style="fill:#a5e0f8; stroke:none;" d="M54 38L55 39L54 38z"/>
<path style="fill:#2ab1ed; stroke:none;" d="M3 39L3 52C4.59089 48.2087 4.59089 42.7913 3 39z"/>
<path style="fill:#48bcef; stroke:none;" d="M11 39L11 52C12.6962 47.9579 11.2433 43.6387 14 40C12.7516 39.3152 12.4516 39.2512 11 39z"/>
<path style="fill:#2b5fac; stroke:none;" d="M18 45C21.1041 43.5179 22.5179 42.1041 24 39C21.0523 40.4973 19.6872 42.1544 18 45z"/>
<path style="fill:#5bbdec; stroke:none;" d="M24.6667 39.3333C24.2222 39.7778 25.2778 39.7222 25.3333 39.6667C25.7778 39.2222 24.7222 39.2778 24.6667 39.3333z"/>
<path style="fill:#6a9bce; stroke:none;" d="M37 39L38 40L37 39z"/>
<path style="fill:#ffffff; stroke:none;" d="M41 39C39.5375 39.4143 38.2708 39.5685 37.0648 40.6026C36.2459 41.3049 35.2821 42.0558 34.7986 43.0586C29.5714 53.8998 49.2469 52.195 44.3966 43.4491C43.5373 41.8995 42.0445 40.4333 41 39z"/>
<path style="fill:#2b5fab; stroke:none;" d="M51 39L45 43C48.2953 44.9855 51.8278 42.9852 51 39z"/>
<path style="fill:#5eb3e3; stroke:none;" d="M52 39C53.2483 39.6848 53.5484 39.7488 55 40C53.7517 39.3152 53.4516 39.2512 52 39z"/>
<path style="fill:#57c0ef; stroke:none;" d="M66 39L67 40L66 39z"/>
<path style="fill:#c0e8fa; stroke:none;" d="M12 40L12 51C13.4287 47.5965 13.1344 43.6357 14 40L12 40z"/>
<path style="fill:#5ea4d8; stroke:none;" d="M36 40L37 41L36 40z"/>
<path style="fill:#8fd5f4; stroke:none;" d="M41 40L42 41L41 40z"/>
<path style="fill:#caebfa; stroke:none;" d="M65 40C65.9293 43.9143 65.9293 47.0857 65 51C67.9044 48.4621 67.9044 42.5379 65 40z"/>
<path style="fill:#ffffff; stroke:none;" d="M13 41L13 51C17.1275 47.5476 17.1275 44.4524 13 41z"/>
<path style="fill:#7bbfe8; stroke:none;" d="M14 41L15 42L14 41z"/>
<path style="fill:#94cdee; stroke:none;" d="M42 41L43 42L42 41z"/>
<path style="fill:#9ddbf7; stroke:none;" d="M64 41L65 42L64 41z"/>
<path style="fill:#ffffff; stroke:none;" d="M65 41C61.437 44.689 61.1357 47.5259 66 50C65.9983 46.8741 66.2129 43.8897 65 41z"/>
<path style="fill:#8bbde3; stroke:none;" d="M15 42L16 43L15 42z"/>
<path style="fill:#abd0eb; stroke:none;" d="M43 42L44 43L43 42z"/>
<path style="fill:#a8e0f8; stroke:none;" d="M63 42L64 43L63 42z"/>
<path style="fill:#9abfe1; stroke:none;" d="M16 43L17 44L16 43z"/>
<path style="fill:#afc5e1; stroke:none;" d="M17 44L18 45L17 44z"/>
<path style="fill:#aedef6; stroke:none;" d="M32 44L32 47C33.0154 45.8607 33.3087 45.3884 34 44L32 44z"/>
<path style="fill:#8ed0f2; stroke:none;" d="M60 44L60 47C61.0154 45.8607 61.3087 45.3884 62 44L60 44z"/>
<path style="fill:#d6f1fc; stroke:none;" d="M17.3333 45.6667C17.2778 45.7222 17.2222 46.7778 17.6667 46.3333C17.7222 46.2778 17.7778 45.2222 17.3333 45.6667z"/>
<path style="fill:#81d2f6; stroke:none;" d="M18.3333 45.6667C18.2778 45.7222 18.2222 46.7778 18.6667 46.3333C18.7222 46.2778 18.7778 45.2222 18.3333 45.6667z"/>
<path style="fill:#4d9ad3; stroke:none;" d="M31.3333 45.6667C31.2778 45.7222 31.2222 46.7778 31.6667 46.3333C31.7222 46.2778 31.7778 45.2222 31.3333 45.6667z"/>
<path style="fill:#96d9f7; stroke:none;" d="M46.3333 45.6667C46.2778 45.7222 46.2222 46.7778 46.6667 46.3333C46.7222 46.2778 46.7778 45.2222 46.3333 45.6667z"/>
<path style="fill:#2ab3ef; stroke:none;" d="M47.3333 45.6667C47.2778 45.7222 47.2222 46.7778 47.6667 46.3333C47.7222 46.2778 47.7778 45.2222 47.3333 45.6667z"/>
<path style="fill:#3b94d2; stroke:none;" d="M59.3333 45.6667C59.2778 45.7222 59.2222 46.7778 59.6667 46.3333C59.7222 46.2778 59.7778 45.2222 59.3333 45.6667z"/>
<path style="fill:#82d5f7; stroke:none;" d="M17 47L18 48L17 47z"/>
<path style="fill:#1e74bf; stroke:none;" d="M25 51C28.3154 52.8437 30.2668 50.0938 33 48C29.795 47.3142 27.6372 49.19 25 51z"/>
<path style="fill:#a8d3ee; stroke:none;" d="M33 47L34 48L33 47z"/>
<path style="fill:#a6e0f8; stroke:none;" d="M45 47L46 48L45 47z"/>
<path style="fill:#2c5daa; stroke:none;" d="M54 52L55 53C57.5075 51.2048 59.2048 49.5075 61 47C57.6659 47.932 56.0871 49.2433 54 52z"/>
<path style="fill:#9ec0e1; stroke:none;" d="M61 47L62 48L61 47z"/>
<path style="fill:#73ccf3; stroke:none;" d="M16 48L17 49L16 48z"/>
<path style="fill:#00a4eb; stroke:none;" d="M27 53C27.5931 53.5784 28.3127 54.8076 29.3202 54.983C36.035 56.1525 35.8784 45.7454 29.7346 50.1767C28.8269 50.8314 27.6822 52.2806 27 53z"/>
<path style="fill:#a9dff6; stroke:none;" d="M34 48L35 49L34 48z"/>
<path style="fill:#a2ddf7; stroke:none;" d="M44 48L45 49L44 48z"/>
<path style="fill:#1482cc; stroke:none;" d="M55 53C58.5557 56.3551 61.2193 54.229 65 52C61.2977 47.7257 58.7475 49.5789 55 53z"/>
<path style="fill:#9dc7e7; stroke:none;" d="M62 48L63 49L62 48z"/>
<path style="fill:#67c8f2; stroke:none;" d="M15 49L16 50L15 49z"/>
<path style="fill:#a5e0f8; stroke:none;" d="M35 49L36 50L35 49z"/>
<path style="fill:#8fd6f5; stroke:none;" d="M43 49L44 50L43 49z"/>
<path style="fill:#92c7e9; stroke:none;" d="M63 49L64 50L63 49z"/>
<path style="fill:#69c8f2; stroke:none;" d="M14 50L15 51L14 50z"/>
<path style="fill:#86d3f5; stroke:none;" d="M42 50L43 51L42 50z"/>
<path style="fill:#94cfef; stroke:none;" d="M64 50L65 51L64 50z"/>
<path style="fill:#7ed1f5; stroke:none;" d="M12.6667 51.3333C12.2222 51.7778 13.2778 51.7222 13.3333 51.6667C13.7778 51.2222 12.7222 51.2778 12.6667 51.3333z"/>
<path style="fill:#4cafe4; stroke:none;" d="M36 51L37 52L36 51z"/>
<path style="fill:#a5d1ed; stroke:none;" d="M37 51L38 52L37 51z"/>
<path style="fill:#8ad4f5; stroke:none;" d="M41 51L42 52L41 51z"/>
<path style="fill:#90d3f3; stroke:none;" d="M65.6667 51.3333C65.2222 51.7778 66.2778 51.7222 66.3333 51.6667C66.7778 51.2222 65.7222 51.2778 65.6667 51.3333z"/>
<path style="fill:#1384ce; stroke:none;" d="M66 52C68.8563 54.701 71.1145 55.2099 75 55L75 52C71.9642 51.945 69.0096 51.6689 66 52z"/>
<path style="fill:#427cbe; stroke:none;" d="M3 52L3 58C3.95111 55.7147 3.95111 54.2853 3 52z"/>
<path style="fill:#0d8cd6; stroke:none;" d="M4 52L4 54C7.41623 54.1623 9.43337 54.3363 12 52L4 52z"/>
<path style="fill:#8ec3e7; stroke:none;" d="M24.6667 52.3333C24.2222 52.7778 25.2778 52.7222 25.3333 52.6667C25.7778 52.2222 24.7222 52.2778 24.6667 52.3333z"/>
<path style="fill:#1187d1; stroke:none;" d="M30 57C33.816 56.6517 35.6679 55.0056 38 52C34.6017 52.9255 32.4419 54.4681 30 57z"/>
<path style="fill:#cae8f7; stroke:none;" d="M38 52C39.2484 52.6848 39.5484 52.7488 41 53C39.7517 52.3152 39.4516 52.2512 38 52z"/>
<path style="fill:#7cbfe7; stroke:none;" d="M52 52C53.2484 52.6848 53.5484 52.7488 55 53C53.7517 52.3152 53.4516 52.2512 52 52z"/>
<path style="fill:#00a2e9; stroke:none;" d="M59 55C62.7607 63.0581 67.3392 63.7515 75 61C70.5147 54.6509 66.3342 51.0318 59 55z"/>
<path style="fill:#4fbff0; stroke:none;" d="M23 53L24 54L23 53z"/>
<path style="fill:#9ed3f0; stroke:none;" d="M26 53L27 54L26 53z"/>
<path style="fill:#236bb7; stroke:none;" d="M32 59C35.4019 57.9062 37.0015 55.9272 39 53C35.7136 54.4052 33.7041 55.8448 32 59z"/>
<path style="fill:#246ab7; stroke:none;" d="M4 54C4.17587 55.8782 4.43819 57.1994 5 59C7.04356 57.3761 7.89645 56.3572 9 54L4 54z"/>
<path style="fill:#5fc4f1; stroke:none;" d="M22 54L23 55L22 54z"/>
<path style="fill:#a6ddf6; stroke:none;" d="M27 54L28 55L27 54z"/>
<path style="fill:#76cdf3; stroke:none;" d="M21 55L22 56L21 55z"/>
<path style="fill:#2962af; stroke:none;" d="M71 55C72.1035 57.3572 72.9564 58.3762 75 60L75 55L71 55z"/>
<path style="fill:#9294c1; stroke:none;" d="M75 55L75 61C75.9511 58.7147 75.9511 57.2853 75 55z"/>
<path style="fill:#7acef4; stroke:none;" d="M20 56L21 57L20 56z"/>
<path style="fill:#4cbeef; stroke:none;" d="M48 56L49 57L48 56z"/>
<path style="fill:#b0e2f8; stroke:none;" d="M49 56L50 57L49 56z"/>
<path style="fill:#63beeb; stroke:none;" d="M58 56L59 57L58 56z"/>
<path style="fill:#6ac8f2; stroke:none;" d="M19 57L20 58L19 57z"/>
<path style="fill:#acdbf3; stroke:none;" d="M30 57L31 58L30 57z"/>
<path style="fill:#46bbef; stroke:none;" d="M47 57L48 58L47 57z"/>
<path style="fill:#afe2f8; stroke:none;" d="M48 57L49 58L48 57z"/>
<path style="fill:#61c5f1; stroke:none;" d="M59 57L60 58L59 57z"/>
<path style="fill:#3d519d; stroke:none;" d="M3 58L3 60L5 60L5 58L3 58z"/>
<path style="fill:#54c0f0; stroke:none;" d="M18 58L19 59L18 58z"/>
<path style="fill:#b0d0ea; stroke:none;" d="M31 58L32 59L31 58z"/>
<path style="fill:#18abeb; stroke:none;" d="M35 58C38.6975 59.5515 43.0168 59 47 59C43.3025 57.4485 38.9832 58 35 58z"/>
<path style="fill:#5cc4f1; stroke:none;" d="M60 58L61 59L60 58z"/>
<path style="fill:#5ec4f1; stroke:none;" d="M17 59L18 60L17 59z"/>
<path style="fill:#84d2f4; stroke:none;" d="M33 59C36.9587 60.6611 41.7366 60 46 60C42.0413 58.3389 37.2634 59 33 59z"/>
<path style="fill:#55c1f0; stroke:none;" d="M61 59L62 60L61 59z"/>
<path style="fill:#7acff4; stroke:none;" d="M16 60L17 61L16 60z"/>
<path style="fill:#e8f7fd; stroke:none;" d="M33 60C36.9587 61.6611 41.7366 61 46 61C42.0413 59.3389 37.2634 60 33 60z"/>
<path style="fill:#6cc9f2; stroke:none;" d="M62 60L63 61L62 60z"/>
<path style="fill:#8cd6f7; stroke:none;" d="M3.66667 61.3333C3.22222 61.7778 4.27778 61.7222 4.33333 61.6667C4.77778 61.2222 3.72222 61.2778 3.66667 61.3333z"/>
<path style="fill:#82d1f4; stroke:none;" d="M15 61L16 62L15 61z"/>
<path style="fill:#70cbf3; stroke:none;" d="M63 61L64 62L63 61z"/>
<path style="fill:#88cff1; stroke:none;" d="M73.6667 61.3333C73.2222 61.7778 74.2778 61.7222 74.3333 61.6667C74.7778 61.2222 73.7222 61.2778 73.6667 61.3333z"/>
<path style="fill:#89d4f4; stroke:none;" d="M5.66667 62.3333C5.22222 62.7778 6.27778 62.7222 6.33333 62.6667C6.77778 62.2222 5.72222 62.2778 5.66667 62.3333z"/>
<path style="fill:#3fb9ef; stroke:none;" d="M7.66667 62.3333C7.22222 62.7778 8.27778 62.7222 8.33333 62.6667C8.77777 62.2222 7.72222 62.2778 7.66667 62.3333z"/>
<path style="fill:#7ccff4; stroke:none;" d="M14 62L15 63L14 62z"/>
<path style="fill:#71cbf3; stroke:none;" d="M64 62L65 63L64 62z"/>
<path style="fill:#61c5f1; stroke:none;" d="M70 62C71.2483 62.6848 71.5484 62.7488 73 63C71.7516 62.3152 71.4516 62.2512 70 62z"/>
<path style="fill:#aae0f8; stroke:none;" d="M8 63L9 64L8 63z"/>
<path style="fill:#30b4ed; stroke:none;" d="M9 63C10.769 63.7789 12.0359 63.9124 14 64C12.231 63.2211 10.9641 63.0876 9 63z"/>
<path style="fill:#71cbf3; stroke:none;" d="M65 63L66 64L65 63z"/>
<path style="fill:#9fdcf7; stroke:none;" d="M69.6667 63.3333C69.2222 63.7778 70.2778 63.7222 70.3333 63.6667C70.7778 63.2222 69.7222 63.2778 69.6667 63.3333z"/>
<path style="fill:#92d7f6; stroke:none;" d="M11.6667 64.3333C11.2222 64.7778 12.2778 64.7222 12.3333 64.6667C12.7778 64.2222 11.7222 64.2778 11.6667 64.3333z"/>
<path style="fill:#6bc9f2; stroke:none;" d="M66.6667 64.3333C66.2222 64.7778 67.2778 64.7222 67.3333 64.6667C67.7778 64.2222 66.7222 64.2778 66.6667 64.3333z"/>
</svg>
